<?xml version="1.0" encoding="utf-8"?>
<!-- Generator: Adobe Illustrator 22.1.0, SVG Export Plug-In . SVG Version: 6.00 Build 0)  -->
<svg version="1.1" id="Layer_1" xmlns="http://www.w3.org/2000/svg" xmlns:xlink="http://www.w3.org/1999/xlink" x="0px" y="0px"
	 viewBox="0 0 328 24" style="enable-background:new 0 0 328 24;" xml:space="preserve">
<style type="text/css">
	.st0{fill:#FFFFFF;}
</style>
<g>
	<g>
		<polygon class="st0" points="52,13.8 64.7,13.8 64.7,9.8 52,9.8 52,4.5 68.3,4.5 67.7,0.4 47.9,0.4 47.9,23.5 67.6,23.5 
			68.4,19.5 52,19.5 		"/>
		<polygon class="st0" points="78.1,0.4 77.2,4.5 88.3,4.5 88.3,23.5 92.3,23.5 92.3,4.5 103.3,4.5 102.5,0.4 		"/>
		<polygon class="st0" points="133.4,9.8 118.9,9.8 118.9,0.4 114.8,0.4 114.8,23.5 118.9,23.5 118.9,13.8 133.4,13.8 133.4,23.5 
			137.4,23.5 137.4,0.4 133.4,0.4 		"/>
		<path class="st0" d="M163.7-0.1c-7.5,0-13.2,5.2-13.2,12c0,6.9,5.7,12.2,13.2,12.2c7.4,0,13.2-5.3,13.2-12.2
			C176.9,5.2,171.1-0.1,163.7-0.1z M163.7,20.1c-5,0-9.1-3.7-9.1-8.2c0-4.4,4.2-8,9.1-8c4.9,0,9.1,3.7,9.1,8.1
			C172.8,16.3,168.7,20.1,163.7,20.1z"/>
		<path class="st0" d="M199.6,0c-2.6,0-6.6,0.3-8.5,0.6L190,0.7v22.6l1.1,0.1c2.2,0.3,6.3,0.5,8.9,0.5c8.2,0,13.8-4.8,13.8-12
			C213.8,4.6,208.2,0,199.6,0z M194.1,4.3c1.5-0.1,3.7-0.3,5.5-0.3c4.9,0,10.1,2.5,10.1,7.9c0,4.8-3.9,8.1-9.7,8.1
			c-1.6,0-4.1-0.1-5.9-0.3V4.3z"/>
		<path class="st0" d="M230.3,0.8c-2.1,2.3-2.9,3.1-5.9,3.5l-1.1,0.1v4l1.3-0.1c1.9-0.1,3.5-0.6,4.9-1.4v16.5h4v-23h-2.9L230.3,0.8z
			"/>
		<path class="st0" d="M256.1-0.2c-5.9,0-10.3,3.4-10.3,7.9c0,4.8,3.6,7.5,9.9,7.5c2.5,0,5.1-0.5,7.4-1.4c-0.6,4.3-3.2,6.4-7.8,6.4
			c-1.8,0-3.5-0.2-5.5-0.7l-2-0.5l1.2,4.3l0.7,0.2c0.6,0.1,2.7,0.6,5.7,0.6c7.6,0,11.8-4.5,11.8-12.6C267,3.8,263.3-0.2,256.1-0.2z
			 M256,3.7c4.4,0,6.5,1.8,6.9,5.8c-2.3,1.1-4.9,1.8-7.2,1.8c-5.9,0-5.9-2.6-5.9-3.5C249.8,5.5,252.6,3.7,256,3.7z"/>
		<path class="st0" d="M293.9,0.4h-5.3l-12.5,15.8v3h13.8v4.2h4v-4.2h4.7l0.8-4h-5.6V0.4z M281.8,15.3l8.1-10.1v10.1H281.8z"/>
		<path class="st0" d="M326.6,0.4h-19.1l-0.9,4h14.6c-5,5.6-7.3,11.2-7.6,17.7l-0.1,1.3h4.1l0.1-1.2c0.4-7.5,3.7-12.4,9.5-18.3
			l0.5-0.6L326.6,0.4z"/>
	</g>
	<g>
		<polygon class="st0" points="16.5,19.6 18.8,21.5 21.9,18.9 19.7,17 		"/>
		<g>
			<polygon class="st0" points="-0.2,23.6 4,23.6 4,21.8 -0.2,18.3 			"/>
			<polygon class="st0" points="16.5,14.3 -0.2,0.1 -0.2,5.4 13.4,17 11.2,18.9 -0.2,9.2 -0.2,14.5 8.1,21.5 11.2,24.2 14.3,21.5 
				16.5,19.6 19.7,17 33.2,5.4 33.2,0.1 			"/>
			<polygon class="st0" points="29.1,23.6 33.2,23.6 33.2,18.3 29.1,21.8 			"/>
			<polygon class="st0" points="18.8,21.5 21.9,24.2 25,21.5 33.2,14.5 33.2,9.2 21.9,18.9 			"/>
		</g>
	</g>
</g>
</svg>
